<svg width="130" height="36" viewBox="0 0 130 36" fill="none" xmlns="http://www.w3.org/2000/svg">
<rect width="130" height="36" fill="white"/>
<g clip-path="url(#clip0_337_2140)">
<path d="M52.5608 9.5064C54.8721 9.54664 57.203 9.4734 59.5329 9.51123C62.9276 9.58422 66.8005 9.04361 69.6093 11.3895C71.895 13.2979 72.0814 17.5164 70.087 19.6953C67.6331 22.3767 64.1159 21.8716 60.865 22.0581L60.8637 24.7175C60.8495 27.7226 60.7987 28.3788 64.2225 28.4528C64.2091 28.8746 64.2152 29.322 64.214 29.746C60.3976 29.6875 56.3787 29.7272 52.554 29.7505C52.5695 29.3746 52.547 28.8449 52.543 28.4572C52.905 28.428 53.9533 28.2239 54.1872 28.0127C54.6855 27.5628 54.573 25.462 54.5736 24.8339L54.5756 21.3703V15.8012C54.5753 14.7969 54.6934 12.4434 54.3446 11.4555C54.1842 11.0013 53.061 10.8809 52.549 10.8166L52.5608 9.5064ZM60.8643 20.3974C62.0827 20.4105 63.006 20.2945 63.9318 19.3927C63.9851 19.341 64.0372 19.2882 64.0874 19.2341C65.7373 17.5015 65.7034 13.6244 63.9228 11.9487C63.1097 11.1836 62.013 10.9236 60.9206 10.9422C60.7642 11.2079 60.8634 19.2984 60.8643 20.3974Z" fill="black" fill-opacity="0.6"/>
<path d="M102.837 13.7805C102.995 13.7575 103.595 13.7652 103.786 13.7639C103.803 14.5202 103.763 15.9248 103.691 16.6598C104.04 16.2369 104.354 15.87 104.745 15.4953C107.448 12.906 113.142 13.0132 113.528 17.5872C113.62 18.6831 113.572 19.8645 113.571 20.9751L113.574 26.3299C113.572 27.8761 113.256 28.4371 115.116 28.503C115.113 28.9165 115.113 29.33 115.119 29.7435C112.311 29.6872 108.977 29.6989 106.169 29.7548L106.171 28.5145C106.84 28.4678 106.981 28.4827 107.548 28.1153C107.658 27.5393 107.621 25.7655 107.621 25.0831L107.617 19.3595C107.619 19.0322 107.626 18.607 107.518 18.2964C106.976 16.7383 104.837 17.2565 103.707 17.6507L103.697 24.1632C103.696 25.2764 103.689 26.3879 103.711 27.501C103.731 28.5157 104.337 28.4616 105.179 28.5143C105.184 28.9245 105.185 29.3347 105.182 29.7448C102.426 29.6614 98.9606 29.7146 96.1797 29.7529C96.1991 29.3737 96.1839 28.9172 96.1809 28.5319C96.965 28.4496 97.6879 28.493 97.723 27.5137C97.766 26.3396 97.7521 25.1728 97.7515 23.998L97.7436 17.4066C97.2259 17.0817 96.7058 16.7609 96.1833 16.4441L96.1815 15.484C98.1008 15.0076 101.025 14.1063 102.837 13.7805Z" fill="black" fill-opacity="0.6"/>
<path d="M26.526 7.13231C26.6626 7.11142 26.7104 7.09998 26.8481 7.13991C26.9639 7.28311 26.9144 9.93902 26.9145 10.2899L26.9172 17.0372C27.6707 16.3765 28.0229 15.8349 28.9945 15.2551C30.3542 14.4439 31.8848 14.1276 33.4368 14.4901C36.5947 15.2278 36.1815 18.7355 36.183 21.2392L36.1822 25.8302C36.1766 26.7998 36.0161 27.7658 36.5178 28.573C37.1835 28.864 37.3727 28.8592 38.0908 28.9208C38.073 29.2333 38.0774 29.4278 38.096 29.7405L31.0446 29.7535L31.0435 28.9274C31.5291 28.8933 32.5229 28.7849 32.7683 28.3512C33.0175 27.9107 32.9775 26.767 32.9751 26.2652C32.9629 23.7652 33.0096 21.2721 32.945 18.7743C32.9371 18.4713 32.8635 18.151 32.7912 17.8579C32.0137 15.7998 29.8592 16.1786 28.2162 16.9911C27.7565 17.2185 27.3245 17.556 26.9193 17.8726C26.8745 21.1068 26.9139 24.3981 26.9335 27.6355C26.9408 28.8459 27.8401 28.8493 28.7982 28.9189L28.7857 29.7487C26.6157 29.6705 23.9499 29.7378 21.7486 29.7526L21.7383 28.9291C23.8891 28.7355 23.6668 28.2652 23.6841 26.2962C23.6988 24.615 23.6858 22.922 23.686 21.2404L23.6683 10.0292C23.3947 9.8697 23.1071 9.73118 22.8272 9.58279C22.5835 9.45367 21.9137 9.15493 21.8376 8.88406C21.8232 8.83275 21.8473 8.78923 21.8735 8.74486C22.1192 8.32922 25.7986 7.31379 26.526 7.13231Z" fill="black" fill-opacity="0.6"/>
<path d="M78.9644 13.7811C79.1085 13.7592 79.6867 13.7672 79.8629 13.7663C79.8829 15.1095 79.8181 16.8263 79.7745 18.1742C79.9743 17.7683 80.2159 16.9967 80.3848 16.5448C81.2198 14.3087 83.0562 13.0451 85.3479 14.2488L85.3551 18.6894C83.6289 18.5691 81.3718 18.775 79.7745 19.4968L79.7673 24.4647C79.7661 25.3688 79.7491 26.2663 79.7951 27.1699C79.8417 28.0788 80.4296 28.2776 81.2192 28.4146C81.4789 28.4544 81.749 28.4797 82.0105 28.508L82.0081 29.7466L72.2976 29.7538C72.2819 29.3498 72.2849 28.9235 72.2812 28.5175C72.9751 28.4833 73.2355 28.4763 73.7586 28.0115C73.8543 27.3315 73.8082 25.2444 73.8076 24.4601L73.8022 17.4011C73.3015 17.0811 72.7947 16.7703 72.2825 16.4689L72.2849 15.4825C73.3553 15.2129 74.4234 14.9348 75.4896 14.6482C76.5002 14.3715 77.9521 13.9557 78.9644 13.7811Z" fill="black" fill-opacity="0.6"/>
<path d="M92.764 13.7797C92.879 13.7617 93.4433 13.7652 93.5923 13.7637C93.5305 18.357 93.6013 22.9966 93.5983 27.5925C93.5977 28.4854 94.4 28.4667 95.0938 28.5102L95.0944 29.7426C92.4637 29.6783 89.5574 29.7417 86.9036 29.7425L86.1062 29.7469C86.1117 29.3345 86.0972 28.9426 86.082 28.5315C86.8092 28.4697 87.0629 28.4897 87.5739 27.9687C87.6472 26.9403 87.5993 25.3352 87.5987 24.2652L87.5939 17.3986C87.1283 17.1276 86.6052 16.7609 86.1123 16.4661L86.0911 15.4893C87.27 15.1919 88.4464 14.8838 89.6192 14.5649C90.511 14.3186 91.8745 13.9262 92.764 13.7797Z" fill="black" fill-opacity="0.6"/>
<path d="M121.773 10.0817L123.082 10.0801C123.085 11.3417 123.032 12.8698 123.091 14.0975C124.161 14.0906 125.232 14.0908 126.303 14.0981C126.286 14.6448 126.295 15.1887 126.3 15.7354C125.515 15.6617 123.893 15.709 123.069 15.7231C123.16 19.0658 122.968 22.4455 123.133 25.7855C123.15 26.1252 123.294 26.4255 123.471 26.7068C124.652 27.4163 125.464 26.9191 126.597 26.361L127 26.9283V27.1923C126.029 28.6851 124.926 29.5591 123.156 29.9347C123.061 29.9545 122.966 29.9762 122.872 29.9997H120.591C116.564 29.0852 117.06 26.0025 117.061 22.7509L117.058 15.7547C116.535 15.6909 115.971 15.7116 115.447 15.753L115.441 14.6602C118.23 13.5429 119.813 12.3671 121.773 10.0817Z" fill="black" fill-opacity="0.6"/>
<path d="M3.43396 9.49415C8.29747 9.64981 13.2648 9.42348 18.138 9.51565C18.9699 9.53138 19.9103 9.53649 20.7396 9.49219C20.9482 11.5737 21.0161 13.7397 21.1687 15.8276C20.9282 15.8306 20.6108 15.8449 20.3783 15.8117C19.8633 14.546 19.3891 13.4074 18.7158 12.2169C17.5848 10.2166 15.8426 10.4202 13.8373 10.4372L13.8323 21.3855C13.8322 22.9036 13.8326 24.4893 13.8341 25.9841C13.8361 27.9245 13.7929 28.5171 15.914 28.8102C16.1033 28.8363 16.3163 28.8795 16.5185 28.8964L16.521 29.7435L7.61848 29.7517L7.61006 28.9054C8.55735 28.7778 9.66324 28.6973 10.2984 27.9087C10.4781 27.0873 10.4015 23.2742 10.4005 22.2392L10.3967 10.4325C8.9688 10.4251 7.16628 10.2739 6.12668 11.3769C5.15819 12.4044 4.38068 14.4956 3.83376 15.8258C3.58549 15.827 3.24005 15.8392 3 15.827V15.039C3.08827 14.7264 3.14271 13.7743 3.16957 13.3786C3.25399 12.135 3.41162 10.7299 3.43396 9.49415Z" fill="black" fill-opacity="0.6"/>
<path d="M44.243 30.0009C39.4654 28.9851 38.1362 24.6303 38.9431 20.3302C39.3143 18.3519 40.4406 16.4205 42.121 15.3293C44.5994 13.72 48.602 14.0296 50.2307 16.7024C50.9975 17.9608 51.1671 19.3492 51.1254 20.7795C48.0061 20.7801 44.7546 20.7351 41.6478 20.7933C41.6428 22.817 41.8521 24.8725 43.3808 26.4033C44.2313 27.2569 45.3878 27.7374 46.5947 27.7387C48.4283 27.7419 49.7487 26.8839 50.8221 25.4682C50.9176 25.3423 50.8701 25.3637 51.0176 25.3123C51.5308 25.5721 50.9074 26.7303 50.7109 27.089C49.9655 28.4502 48.7859 29.3606 47.2996 29.805C47.0418 29.8832 46.7803 29.9487 46.516 30.0009H44.243ZM41.7286 19.9176L45.0511 19.9197C46.0681 19.9176 47.1033 19.9255 48.1186 19.9125C48.0472 17.7506 47.6538 15.0919 44.8341 15.3606C42.6916 15.7283 41.8665 17.9994 41.7286 19.9176Z" fill="black" fill-opacity="0.6"/>
<path d="M90.008 7H91.3176C92.3136 7.32776 93.1497 7.71222 93.5469 8.75661C94.6035 11.533 91.7457 13.5853 89.2263 12.4498C88.5591 12.157 88.0414 11.6054 87.7926 10.9227C87.5122 10.191 87.5352 9.37824 87.8555 8.66311C88.3114 7.66681 89.0592 7.35497 90.008 7Z" fill="black" fill-opacity="0.6"/>
</g>
<defs>
<clipPath id="clip0_337_2140">
<rect width="124" height="23" fill="white" transform="translate(3 7)"/>
</clipPath>
</defs>
</svg>
