<svg width="132" height="36" viewBox="0 0 132 36" fill="none" xmlns="http://www.w3.org/2000/svg">
<rect width="132" height="36" fill="white"/>
<g clip-path="url(#clip0_337_1261)">
<path d="M64.2277 7.54158C69.7529 6.70236 74.9081 10.5149 75.7293 16.0476C76.5505 21.5803 72.7258 26.7284 67.1956 27.5335C61.6896 28.3351 56.5734 24.527 55.7555 19.0184C54.9377 13.5098 58.7266 8.37715 64.2277 7.54158ZM66.3713 25.3274C70.6865 24.9797 73.904 21.1973 73.5583 16.8778C73.2132 12.5583 69.4353 9.33639 65.1195 9.68035C60.8013 10.0245 57.5799 13.8084 57.9256 18.1306C58.2713 22.4527 62.0532 25.6754 66.3713 25.3274Z" fill="black" fill-opacity="0.6"/>
<path d="M90.0605 7.59378C95.5932 7.14599 100.439 11.2757 100.88 16.8137C101.321 22.3517 97.1894 27.1973 91.6555 27.6319C86.1316 28.0658 81.3003 23.9388 80.8603 18.4101C80.4204 12.8813 84.5378 8.04082 90.0605 7.59378ZM91.4552 25.5258C95.8265 25.2153 99.114 21.4083 98.7882 17.0337C98.4625 12.659 94.6471 9.38218 90.2776 9.72403C85.9306 10.0641 82.6769 13.8594 83.0008 18.212C83.3253 22.5645 87.105 25.8348 91.4552 25.5258Z" fill="black" fill-opacity="0.6"/>
<path d="M25.8066 7.6704C26.6097 7.65253 27.413 7.6543 28.2159 7.6757C27.9862 8.48608 27.7063 9.37573 27.435 10.1754C25.4911 15.9053 23.9337 21.9122 21.9304 27.6059L19.5252 27.6074C19.2585 26.9405 18.9341 25.797 18.7079 25.0764L17.1591 20.1621C16.6806 18.5298 16.1101 16.809 15.5977 15.1787C16.395 15.1611 17.2353 15.1726 18.0361 15.1709C18.2003 15.8718 18.6913 17.27 18.9327 18.0313L20.7286 23.7075C21.206 22.538 21.9609 19.8554 22.3675 18.5614L25.8066 7.6704Z" fill="black" fill-opacity="0.6"/>
<path d="M111.661 7.65529C112.587 7.72102 114.035 7.66746 114.997 7.64803C121.104 7.52466 124.46 14.8137 120.04 19.2129C118.226 21.0197 116.513 21.2436 114.041 21.2302L111.641 21.2214C111.627 20.4546 111.639 19.6587 111.642 18.8895L113.994 18.8934C115.74 18.894 116.928 18.8891 118.267 17.5877C120.612 15.3087 119.71 11.4194 116.689 10.2875C115.756 9.93844 114.905 9.99203 113.927 9.99652C113.165 10.0006 112.403 9.99977 111.641 9.99396C111.633 9.46648 111.591 8.11845 111.661 7.65529Z" fill="black" fill-opacity="0.6"/>
<path d="M35.4899 7.66036C35.5637 7.76632 35.5321 25.5485 35.5322 27.6042L33.0249 27.6011C32.8803 26.9985 32.9987 23.0691 32.9996 22.2364L33.0066 7.66774C33.8214 7.64782 34.6721 7.65972 35.4899 7.66036Z" fill="black" fill-opacity="0.6"/>
<path d="M106.583 7.65625C107.329 7.68904 108.29 7.65915 109.068 7.66977L109.071 20.1108C109.071 22.5685 109.105 25.1302 109.048 27.5786C108.801 27.6384 106.92 27.6029 106.584 27.5991C106.524 25.2288 106.575 22.6084 106.574 20.2198L106.583 7.65625Z" fill="black" fill-opacity="0.6"/>
<path d="M47.9047 7.64844C48.3122 7.69542 49.843 7.66161 50.3794 7.67089C50.4305 14.2271 50.4436 21.0513 50.3702 27.6023C49.5495 27.6082 48.7288 27.6069 47.908 27.5986C47.8715 26.7202 47.8818 25.8038 47.8895 24.9218C47.9396 19.1713 47.8148 13.3965 47.9047 7.64844Z" fill="black" fill-opacity="0.6"/>
<path d="M13.2153 7.67672C14.0169 7.64372 14.8127 7.66259 15.6147 7.6741C13.7292 14.2703 11.2859 21.0092 9.35567 27.6095C8.54443 27.6017 7.73306 27.6046 6.92188 27.618L10.8419 15.171C11.6023 12.7574 12.3905 10.0459 13.2153 7.67672Z" fill="black" fill-opacity="0.6"/>
<path d="M0.667969 7.64844C1.07146 7.69525 2.55944 7.6638 3.08078 7.67255L6.96412 20.0289C6.15328 20.0379 5.34237 20.035 4.53164 20.0204L1.96253 11.8849C1.57679 10.6565 0.941214 8.85111 0.667969 7.64844Z" fill="black" fill-opacity="0.6"/>
<path d="M38.1103 16.4117L45.2998 16.4023C45.3025 17.121 45.3387 18.0724 45.2844 18.7671L45.1981 18.8341L38.0985 18.825C38.0779 18.0301 38.0609 17.2036 38.1103 16.4117Z" fill="black" fill-opacity="0.6"/>
<path d="M125.253 8.66521C125.804 8.65213 127.254 8.5086 126.782 9.47944C126.674 9.56788 126.563 9.65426 126.451 9.73852C126.677 10.1118 126.822 9.84446 126.838 10.4618C126.711 10.6234 126.775 10.5768 126.564 10.6374L126.4 10.5939C126.283 10.279 126.468 10.2518 126.296 9.96244C126.112 9.89149 125.869 9.87937 125.712 10.0165C125.624 10.3229 125.793 10.3275 125.66 10.6012L125.506 10.6145C125.589 10.4294 125.526 10.011 125.499 9.80217L125.5 9.7557C125.516 9.52266 125.618 8.91337 125.537 8.77897C125.327 9.08295 125.33 10.2207 125.394 10.5583C125.399 10.5817 125.404 10.6048 125.411 10.6279L125.273 10.57C125.207 10.1074 125.244 9.16179 125.253 8.66521ZM126.343 9.46607C126.363 9.20272 126.397 9.26282 126.265 9.0708C126.059 8.98744 125.928 8.99937 125.707 8.99853C125.698 9.17981 125.659 9.41167 125.766 9.54346C125.979 9.59949 126.11 9.54146 126.343 9.46607Z" fill="black" fill-opacity="0.6"/>
<path d="M125.411 10.6282C125.404 10.6052 125.399 10.582 125.394 10.5586C125.329 10.221 125.327 9.08327 125.537 8.7793C125.618 8.91369 125.516 9.52298 125.5 9.75602L125.464 9.12237C125.45 9.30131 125.41 10.3197 125.467 10.396C125.481 10.1983 125.492 10.0005 125.499 9.80249C125.526 10.0113 125.589 10.4297 125.505 10.6149L125.411 10.6282Z" fill="black" fill-opacity="0.6"/>
<path d="M125.499 9.80317C125.492 10.0012 125.481 10.199 125.467 10.3967C125.41 10.3203 125.451 9.30199 125.464 9.12305L125.5 9.7567L125.499 9.80317Z" fill="black" fill-opacity="0.6"/>
<path d="M127.616 10.4715C127.201 11.3373 126.123 11.7117 125.253 11.2908C124.809 11.0769 124.467 10.6954 124.302 10.2298C123.988 9.31449 124.349 8.31207 125.301 7.99219L125.466 8.14069C124.994 8.49371 124.632 8.78672 124.542 9.42748C124.485 9.81936 124.588 10.2176 124.827 10.5329C125.06 10.8398 125.406 11.0403 125.788 11.0892C126.499 11.175 127.078 10.6841 127.412 10.1007L127.459 10.214C127.33 10.591 127.044 10.7037 126.915 11.0043C127.183 10.7769 127.338 10.6558 127.555 10.3713L127.616 10.4715Z" fill="black" fill-opacity="0.6"/>
<path d="M126.816 8.35312L126.867 8.26367C127.186 8.29954 127.117 8.49509 127.422 8.53953C127.644 8.77307 127.656 8.96837 127.802 9.26629V9.97746L127.618 10.4717L127.557 10.3715C127.571 10.2893 127.576 10.1688 127.581 10.0828L127.461 10.2142L127.414 10.1009C127.752 9.37203 127.309 8.84625 126.816 8.35312Z" fill="black" fill-opacity="0.6"/>
<path d="M125.305 7.99297C126.099 7.77107 126.891 7.85143 127.423 8.5401C127.118 8.49567 127.188 8.30011 126.869 8.26424L126.818 8.35369C126.297 8.03034 126.063 8.00597 125.469 8.14147L125.305 7.99297Z" fill="black" fill-opacity="0.6"/>
<path d="M127.462 10.2153L127.583 10.084C127.577 10.17 127.572 10.2904 127.558 10.3727C127.341 10.6572 127.186 10.7783 126.918 11.0057C127.047 10.705 127.334 10.5924 127.462 10.2153Z" fill="black" fill-opacity="0.6"/>
</g>
<defs>
<clipPath id="clip0_337_1261">
<rect width="127.802" height="30.0435" fill="white" transform="translate(0 3)"/>
</clipPath>
</defs>
</svg>
